Coordinates
version=1
nRows=8
nColumns=28
inDegrees=yes

Units are S.I. units (second, meters, Newtons, ...)
If the header above contains a line with 'inDegrees', this indicates whether rotational values are in degrees (yes) or radians (no).

endheader
time	pelvis_tilt	pelvis_list	pelvis_rotation	pelvis_tx	pelvis_ty	pelvis_tz	hip_flexion_r	hip_adduction_r	hip_rotation_r	knee_angle_r	knee_angle_r_ie	knee_angle_r_vv	ankle_angle_r	subtalar_angle_r	mtp_angle_r	hip_flexion_l	hip_adduction_l	hip_rotation_l	knee_angle_l	knee_angle_l_ie	knee_angle_l_vv	ankle_angle_l	subtalar_angle_l	mtp_angle_l	lumbar_extension	lumbar_bending	lumbar_rotation
     16.91500000	      3.15423189	      6.96498768	     13.52269666	      0.27423879	      0.79577223	      0.03612455	     -3.71856916	    -37.98652099	    -13.19748299	    -17.23307140	    -12.44353253	     -2.71855267	     -1.71223448	      4.52092649	      0.00000000	      5.13750619	    -34.07657994	      0.42632280	    -10.12225524	     15.07084917	      0.20863620	    -34.38211553	      9.10167963	      0.00000000	    -27.59735407	     -1.37021309	     -6.51163347
     16.92000000	      3.05572799	      6.45642155	     13.65200941	      0.27367371	      0.79518543	      0.02806103	     -4.48803816	    -37.87283494	    -13.76595052	    -15.67105879	    -12.85980784	     -2.66864894	     -3.60570302	      4.92516632	      0.00000000	      5.47448284	    -33.91212911	     -0.01981061	    -10.84332061	     15.66404990	      0.42176595	    -33.01633449	      8.96672878	      0.00000000	    -27.30062960	     -1.34804722	     -6.09286079
     16.92500000	      3.01983732	      5.98453059	     13.83463543	      0.27302599	      0.79475457	      0.01979569	     -5.40408957	    -37.77272303	    -14.65854041	    -14.00916519	    -13.46598658	     -2.73192216	     -5.54835903	      6.11586542	      0.00000000	      5.82344930	    -33.69709510	     -0.32052754	    -11.66253744	     17.00939877	      0.72573411	    -31.16980648	      9.76553513	      0.00000000	    -27.08886533	     -1.32022278	     -5.73041300
     16.93000000	      2.90281574	      5.39401211	     14.01411514	      0.27228146	      0.79415932	      0.01150410	     -6.15601764	    -37.56471528	    -15.42190627	    -12.35048975	    -13.88430349	     -2.76971168	     -7.74589125	      6.81268921	      0.00000000	      6.36511352	    -33.60664938	     -0.68291864	    -12.66937694	     17.93469194	      1.05900531	    -28.75337601	     10.55780838	      0.00000000	    -26.77154194	     -1.19902880	     -5.40081053
     16.93500000	      2.74151467	      4.80345628	     14.21366562	      0.27141736	      0.79350655	      0.00311421	     -6.84747969	    -37.37834696	    -16.18338376	    -10.69721936	    -14.30055323	     -2.78886771	    -10.08767415	      7.44001790	      0.00000000	      7.03268850	    -33.51482560	     -0.94722039	    -13.80077512	     18.92520462	      1.42215248	    -25.96564425	     11.82981868	      0.00000000	    -26.42493929	     -1.09229363	     -5.10778896
     16.94000000	      2.52499462	      4.21327584	     14.46269846	      0.27031375	      0.79276591	     -0.00536401	     -7.46101235	    -37.22100122	    -16.92188993	     -9.09967000	    -14.77565042	     -2.76508945	    -12.55156775	      7.98794608	      0.00000000	      7.87343977	    -33.42609710	     -1.06676816	    -15.05022895	     19.90681899	      1.77111472	    -22.95574604	     13.43899986	      0.00000000	    -26.06225030	     -0.97790880	     -4.95891804
     16.94500000	      2.26429580	      3.55673588	     14.67124125	      0.26920381	      0.79192553	     -0.01376778	     -7.92051734	    -37.00543086	    -17.57839254	     -7.54609202	    -15.28503203	     -2.73181343	    -15.10691876	      8.45270002	      0.00000000	      8.77246319	    -33.44677414	     -1.24360320	    -16.31720471	     20.59090023	      2.08642493	    -19.94531048	     15.06072435	      0.00000000	    -25.63895822	     -0.85012694	     -4.70928340
     16.95000000	      1.97043054	      2.94085157	     14.90152393	      0.26790788	      0.79102640	     -0.02219062	     -8.30223031	    -36.86113631	    -18.13370801	     -6.10332736	    -15.92977032	     -2.63756583	    -17.67491708	      8.79659281	      0.00000000	      9.73732250	    -33.44858708	     -1.28304586	    -17.60595583	     21.12623343	      2.30225456	    -16.95785774	     16.51617174	      0.00000000	    -25.23386914	     -0.75949131	     -4.60492344
